<svg width="24" height="24" viewBox="0 0 24 24" fill="none" xmlns="http://www.w3.org/2000/svg">
<path d="M23.7612 10.7025L12.5737 0.22125C12.2587 -0.07375 11.7425 -0.07375 11.4275 0.22125L0.238729 10.7025C-0.271271 11.1812 0.0899788 11.9987 0.811229 11.9987H1.99873V23.1912C1.99873 23.6375 2.35998 23.9988 2.80623 23.9988H8.19123C8.63748 23.9988 8.99873 23.6375 8.99873 23.1912V17.525C8.99873 16.6813 9.68248 15.9987 10.525 15.9987H12.94C12.98 15.9987 13.0187 15.9863 13.0512 15.9625C13.9912 15.2738 15.18 14.9062 16.455 15.02C18.7975 15.2287 20.7025 17.0863 20.965 19.4237C21.1537 21.0987 20.5075 22.6338 19.3925 23.6675C19.2637 23.7863 19.3462 24 19.5212 24H21.19C21.6362 24 21.9975 23.6388 21.9975 23.1925V12H23.185C23.9075 12 24.2687 11.1825 23.7575 10.7037L23.7612 10.7025Z" fill="#F4F4F4"/>
<path d="M15 22.4725V17.5263C15 17.0388 14.7713 16.6063 14.415 16.3263C12.9938 16.94 12 18.3538 12 20C12 22.2088 13.7912 24 16 24C16.11 24 16.22 23.9938 16.3275 23.985C15.5787 23.8875 15 23.2488 15 22.4725ZM13.7812 21.9725C13.75 21.9788 13.7175 21.9813 13.6875 21.9813C13.4525 21.9813 13.2425 21.815 13.1975 21.575L12.8225 19.61C12.7713 19.3388 12.9487 19.0775 13.22 19.025C13.2512 19.0188 13.2837 19.0163 13.3137 19.0163C13.5487 19.0163 13.7587 19.1825 13.8037 19.4225L14.1787 21.3875C14.23 21.6588 14.0525 21.92 13.7812 21.9725Z" fill="#F4F4F4"/>
<path d="M19.9999 19.9988C19.9999 17.79 18.2087 15.9988 15.9999 15.9988C15.4374 15.9988 14.9012 16.1163 14.4149 16.325C14.7699 16.605 14.9999 17.0375 14.9999 17.525V22.4713C14.9999 23.2463 15.5787 23.8863 16.3274 23.9838C18.3837 23.8175 19.9999 22.0975 19.9999 19.9988Z" fill="#F4F4F4"/>
</svg>
