<svg width="24" height="25" viewBox="0 0 24 25" fill="none" xmlns="http://www.w3.org/2000/svg">
<path d="M23.0795 0.049685L11.5607 4.65468C11.192 4.80218 10.9007 5.10344 10.7857 5.48344C10.1645 7.53843 8.25446 9.03968 5.99946 9.03968C5.10321 9.03968 4.26071 8.80218 3.53196 8.38718C3.18571 8.18968 2.76571 8.16968 2.39571 8.31843L0.530714 9.06343C0.00946391 9.27218 -0.174286 9.92968 0.190714 10.2809L5.23446 11.5672C5.67946 11.6809 6.15196 11.6159 6.54946 11.3847L16.462 5.64844C16.6095 5.56344 16.7557 5.76218 16.6295 5.87718L9.04946 12.8147C8.43446 13.3784 8.30946 14.2947 8.75071 14.9997L14.3057 23.8622C14.6707 24.2134 15.3295 24.0122 15.5245 23.4897L23.9582 0.894685C24.1595 0.354685 23.6195 -0.165315 23.0807 0.049685H23.0795Z" fill="#F4F4F4"/>
<path d="M10.001 4.03967C10.001 1.83092 8.20973 0.0396729 6.00098 0.0396729C3.79223 0.0396729 2.00098 1.83092 2.00098 4.03967C2.00098 5.59467 2.88848 6.94092 4.18473 7.60342L9.77348 5.36967C9.91973 4.95342 10.001 4.50717 10.001 4.04092V4.03967ZM8.81848 4.00092L8.67598 4.05717C8.66348 4.05842 8.64973 4.05967 8.63598 4.05967C8.51473 4.05967 8.39223 3.99092 8.32098 3.86967L7.57098 2.58342C7.46723 2.40592 7.51348 2.18217 7.67473 2.08467C7.72598 2.05342 7.78223 2.03842 7.83848 2.03842C7.95973 2.03842 8.08223 2.10717 8.15348 2.22842L8.90348 3.51467C9.00223 3.68467 8.96348 3.89592 8.81848 3.99967V4.00092Z" fill="#F4F4F4"/>
<path d="M9.77332 5.36844L4.18457 7.60219C4.72957 7.88094 5.34707 8.03844 6.00082 8.03844C7.74332 8.03844 9.22582 6.92344 9.77332 5.36719V5.36844Z" fill="#F4F4F4"/>
</svg>
