<svg width="22" height="22" viewBox="0 0 22 22" fill="none" xmlns="http://www.w3.org/2000/svg">
<path d="M10.0825 12.7913H12.7913V12.5088C12.4688 12.2738 12.2913 11.8688 12.37 11.45L13.1675 7.275C13.2663 6.7675 13.7087 6.41125 14.2087 6.41125C14.275 6.41125 14.3437 6.41625 14.41 6.43C14.9862 6.54125 15.3638 7.09625 15.255 7.67375L14.795 10.0837H16.85C16.9463 9.57 17 9.04125 17 8.5C17 5.0025 14.8863 1.99875 11.8675 0.695C10.835 0.24875 9.69625 0 8.5 0C3.805 0 0 3.805 0 8.5C0 13.195 3.435 16.615 7.80375 16.9688C8.03375 16.9875 8.265 17 8.5 17C8.6675 17 8.835 16.9937 9 16.9837V13.875C9 13.2788 9.4875 12.7913 10.0837 12.7913H10.0825Z" fill="#F4F4F4"/>
<path d="M14.4565 11.85C14.3903 12.1925 14.1653 12.4662 13.874 12.6075V12.7925H15.8353C16.134 12.2825 16.3815 11.7387 16.5703 11.1675H14.5878L14.4578 11.85H14.4565Z" fill="#F4F4F4"/>
<path d="M20.9153 12.7913H18.2066V11.1663C18.2066 10.57 17.7191 10.0825 17.1228 10.0825H16.8478C16.7778 10.4525 16.6841 10.8138 16.5678 11.1663H16.5803C16.8778 11.1663 17.1216 11.41 17.1216 11.7075V12.7913H15.8328C14.4366 15.1725 11.9153 16.8138 8.99658 16.9838V20.9163C8.99658 21.5125 9.48408 22 10.0803 22H20.9141C21.5103 22 21.9978 21.5125 21.9978 20.9163V13.875C21.9978 13.2788 21.5103 12.7913 20.9141 12.7913H20.9153Z" fill="#F4F4F4"/>
<path d="M15.8353 12.7913H13.8741V12.6063C13.7341 12.6738 13.5778 12.7125 13.4153 12.7125C13.3491 12.7125 13.2803 12.7075 13.2128 12.6938C13.0541 12.6625 12.9116 12.5975 12.7891 12.5088V12.7913H10.0803C9.48408 12.7913 8.99658 13.2788 8.99658 13.875V16.9838C11.9141 16.8138 14.4366 15.1725 15.8328 12.7913H15.8353Z" fill="#F4F4F4"/>
<path d="M14.5879 11.1663H16.5704C16.6866 10.815 16.7804 10.4538 16.8504 10.0825H14.7954L14.5891 11.1663H14.5879Z" fill="#F4F4F4"/>
</svg>
